<svg preserveAspectRatio="none" overflow="visible" style="display: block;" width="433" height="500" viewBox="0 0 433 500" fill="none" xmlns="http://www.w3.org/2000/svg">
<g id="Mask group">
<mask id="mask0_0_25" style="mask-type:alpha" maskUnits="userSpaceOnUse" x="0" y="0" width="433" height="500">
<foreignObject x="0" y="0" width="0" height="0"><div xmlns="http://www.w3.org/1999/xhtml" style="backdrop-filter:blur(25px);clip-path:url(#bgblur_0_0_25_clip_path);height:100%;width:100%"></div></foreignObject><path id="Squircle n=3.00 r=100px" data-figma-bg-blur-radius="50" d="M433 379.908C433 390.171 432.989 391.1 432.927 395.492C432.839 401.764 432.67 406.56 432.415 411.05C432.087 416.848 431.619 421.871 431.01 426.529C430.283 432.095 429.356 437.097 428.228 441.733C426.94 447.026 425.389 451.831 423.576 456.253C421.595 461.082 419.299 465.451 416.682 469.413C413.98 473.503 410.936 477.159 407.53 480.403C404.231 483.546 400.593 486.303 396.572 488.682C392.89 490.86 388.889 492.722 384.481 494.269C380.621 495.624 376.456 496.737 371.821 497.611C367.943 498.341 363.76 498.903 358.932 499.298C355.194 499.603 351.199 499.807 345.977 499.912C342.32 499.987 341.546 500 333 500H100C91.454 500 90.68 499.987 87.023 499.912C81.801 499.807 77.806 499.603 74.068 499.298C69.24 498.903 65.057 498.341 61.179 497.611C56.544 496.737 52.379 495.624 48.519 494.269C44.111 492.722 40.11 490.86 36.428 488.682C32.407 486.303 28.769 483.546 25.47 480.403C22.064 477.159 19.02 473.503 16.318 469.413C13.701 465.451 11.405 461.082 9.424 456.253C7.611 451.831 6.06 447.026 4.772 441.733C3.644 437.097 2.717 432.095 1.99 426.529C1.381 421.871 0.913 416.848 0.585 411.05C0.33 406.56 0.161 401.764 0.073 395.492C0.011 391.1 0 390.171 0 379.908L0 120.092C0 109.829 0.011 108.9 0.073 104.508C0.161 98.236 0.33 93.44 0.585 88.95C0.913 83.152 1.381 78.129 1.99 73.471C2.717 67.905 3.644 62.903 4.772 58.267C6.06 52.974 7.611 48.169 9.424 43.747C11.405 38.918 13.701 34.549 16.318 30.587C19.02 26.497 22.064 22.841 25.47 19.597C28.769 16.454 32.407 13.697 36.428 11.318C40.11 9.14 44.111 7.278 48.519 5.731C52.379 4.376 56.544 3.263 61.179 2.389C65.057 1.659 69.24 1.097 74.068 0.702C77.806 0.397 81.801 0.193 87.023 0.0880003C90.68 0.0130003 91.454 0 100 0H333C341.546 0 342.32 0.0130003 345.977 0.0880003C351.199 0.193 355.194 0.397 358.932 0.702C363.76 1.097 367.943 1.659 371.821 2.389C376.456 3.263 380.621 4.376 384.481 5.731C388.889 7.278 392.89 9.14 396.572 11.318C400.593 13.697 404.231 16.454 407.53 19.597C410.936 22.841 413.98 26.497 416.682 30.587C419.299 34.549 421.595 38.918 423.576 43.747C425.389 48.169 426.94 52.974 428.228 58.267C429.356 62.903 430.283 67.905 431.01 73.471C431.619 78.129 432.087 83.152 432.415 88.95C432.67 93.44 432.839 98.236 432.927 104.508C432.989 108.9 433 109.829 433 120.092V379.908Z" fill="white"/>
</mask>
<g mask="url(#mask0_0_25)">
<g id="Ellipse 14" filter="url(#filter0_f_0_25)">
<circle cx="220.5" cy="7.5" r="130.5" fill="#FCECCD"/>
</g>
</g>
</g>
<defs>
<clipPath id="bgblur_0_0_25_clip_path" transform="translate(0 0)"><path d="M433 379.908C433 390.171 432.989 391.1 432.927 395.492C432.839 401.764 432.67 406.56 432.415 411.05C432.087 416.848 431.619 421.871 431.01 426.529C430.283 432.095 429.356 437.097 428.228 441.733C426.94 447.026 425.389 451.831 423.576 456.253C421.595 461.082 419.299 465.451 416.682 469.413C413.98 473.503 410.936 477.159 407.53 480.403C404.231 483.546 400.593 486.303 396.572 488.682C392.89 490.86 388.889 492.722 384.481 494.269C380.621 495.624 376.456 496.737 371.821 497.611C367.943 498.341 363.76 498.903 358.932 499.298C355.194 499.603 351.199 499.807 345.977 499.912C342.32 499.987 341.546 500 333 500H100C91.454 500 90.68 499.987 87.023 499.912C81.801 499.807 77.806 499.603 74.068 499.298C69.24 498.903 65.057 498.341 61.179 497.611C56.544 496.737 52.379 495.624 48.519 494.269C44.111 492.722 40.11 490.86 36.428 488.682C32.407 486.303 28.769 483.546 25.47 480.403C22.064 477.159 19.02 473.503 16.318 469.413C13.701 465.451 11.405 461.082 9.424 456.253C7.611 451.831 6.06 447.026 4.772 441.733C3.644 437.097 2.717 432.095 1.99 426.529C1.381 421.871 0.913 416.848 0.585 411.05C0.33 406.56 0.161 401.764 0.073 395.492C0.011 391.1 0 390.171 0 379.908L0 120.092C0 109.829 0.011 108.9 0.073 104.508C0.161 98.236 0.33 93.44 0.585 88.95C0.913 83.152 1.381 78.129 1.99 73.471C2.717 67.905 3.644 62.903 4.772 58.267C6.06 52.974 7.611 48.169 9.424 43.747C11.405 38.918 13.701 34.549 16.318 30.587C19.02 26.497 22.064 22.841 25.47 19.597C28.769 16.454 32.407 13.697 36.428 11.318C40.11 9.14 44.111 7.278 48.519 5.731C52.379 4.376 56.544 3.263 61.179 2.389C65.057 1.659 69.24 1.097 74.068 0.702C77.806 0.397 81.801 0.193 87.023 0.0880003C90.68 0.0130003 91.454 0 100 0H333C341.546 0 342.32 0.0130003 345.977 0.0880003C351.199 0.193 355.194 0.397 358.932 0.702C363.76 1.097 367.943 1.659 371.821 2.389C376.456 3.263 380.621 4.376 384.481 5.731C388.889 7.278 392.89 9.14 396.572 11.318C400.593 13.697 404.231 16.454 407.53 19.597C410.936 22.841 413.98 26.497 416.682 30.587C419.299 34.549 421.595 38.918 423.576 43.747C425.389 48.169 426.94 52.974 428.228 58.267C429.356 62.903 430.283 67.905 431.01 73.471C431.619 78.129 432.087 83.152 432.415 88.95C432.67 93.44 432.839 98.236 432.927 104.508C432.989 108.9 433 109.829 433 120.092V379.908Z"/>
</clipPath><filter id="filter0_f_0_25" x="-10" y="-223" width="461" height="461" filterUnits="userSpaceOnUse" color-interpolation-filters="sRGB">
<feFlood flood-opacity="0" result="BackgroundImageFix"/>
<feBlend mode="normal" in="SourceGraphic" in2="BackgroundImageFix" result="shape"/>
<feGaussianBlur stdDeviation="50" result="effect1_foregroundBlur_0_25"/>
</filter>
</defs>
</svg>
